<svg xmlns="http://www.w3.org/2000/svg" xmlns:xlink="http://www.w3.org/1999/xlink" xml:space="preserve" version="1.0" style="shape-rendering:geometricPrecision;text-rendering:geometricPrecision;image-rendering:optimizeQuality;" viewBox="0 0 100000 125000" x="0px" y="0px" fill-rule="evenodd" clip-rule="evenodd"><defs><style type="text/css">
   
    .fil0 {fill:black}
   
  </style></defs><g><path class="fil0" d="M89881 5687l-26586 1c-5905,0 -5905,8863 0,8863l15952 -1 -23486 23485c-4148,4148 2136,10271 6204,6204l23485 -23486 0 15952c0,5905 8863,5905 8863,0l0 -26586c0,-2319 -2140,-4432 -4432,-4432z"/><path class="fil0" d="M38035 55761l-23485 23486 0 -15952c0,-5905 -8863,-5905 -8863,0l0 26586c0,2319 2140,4432 4432,4432l26586 -1c5905,0 5905,-8863 0,-8863l-15952 1 23486 -23485c4113,-4114 -2090,-10317 -6204,-6204z"/><path class="fil0" d="M89881 5687l-26586 1c-5905,0 -5905,8863 0,8863l15952 -1 -23486 23485c-4148,4148 2136,10271 6204,6204l23485 -23486 0 15952c0,5905 8863,5905 8863,0l0 -26586c0,-2319 -2140,-4432 -4432,-4432z"/><path class="fil0" d="M38035 55761l-23485 23486 0 -15952c0,-5905 -8863,-5905 -8863,0l0 26586c0,2319 2140,4432 4432,4432l26586 -1c5905,0 5905,-8863 0,-8863l-15952 1 23486 -23485c4113,-4114 -2090,-10317 -6204,-6204z"/></g><text x="0" y="100015" fill="#000000" font-size="5px" font-weight="bold" font-family="'Helvetica Neue', Helvetica, Arial-Unicode, Arial, Sans-serif">Created by faim desainer</text><text x="0" y="100020" fill="#000000" font-size="5px" font-weight="bold" font-family="'Helvetica Neue', Helvetica, Arial-Unicode, Arial, Sans-serif">from the Noun Project</text></svg>