<svg xmlns="http://www.w3.org/2000/svg" xmlns:xlink="http://www.w3.org/1999/xlink" xml:space="preserve" version="1.0" style="shape-rendering:geometricPrecision;text-rendering:geometricPrecision;image-rendering:optimizeQuality;" viewBox="0 0 100000 125000" x="0px" y="0px" fill-rule="evenodd" clip-rule="evenodd"><defs><style type="text/css">
   
    .fil0 {fill:black}
   
  </style></defs><g><path class="fil0" d="M42061 53977l-23911 1c-5311,0 -5311,7971 0,7971l14346 -1 -21122 21122c-3731,3730 1921,9237 5580,5580l21121 -21123 0 14346c0,5312 7972,5312 7972,0l0 -23910c0,-2086 -1925,-3986 -3986,-3986z"/><path class="fil0" d="M83058 11362l-21122 21123 0 -14347c0,-5311 -7971,-5311 -7971,0l0 23911c0,2086 1925,3986 3986,3986l23911 -1c5311,0 5311,-7971 0,-7971l-14346 1 21122 -21122c3699,-3701 -1879,-9279 -5580,-5580z"/></g><text x="0" y="100015" fill="#000000" font-size="5px" font-weight="bold" font-family="'Helvetica Neue', Helvetica, Arial-Unicode, Arial, Sans-serif">Created by faim desainer</text><text x="0" y="100020" fill="#000000" font-size="5px" font-weight="bold" font-family="'Helvetica Neue', Helvetica, Arial-Unicode, Arial, Sans-serif">from the Noun Project</text></svg>